<svg width="18" height="18" viewBox="0 0 18 18" fill="none" xmlns="http://www.w3.org/2000/svg">
<path fill-rule="evenodd" clip-rule="evenodd" d="M9.42769 0.297241C9.62143 0.297241 9.80724 0.374205 9.94424 0.511202C10.0812 0.648199 10.1582 0.834007 10.1582 1.02775V8.08933H17.2198C17.4135 8.08933 17.5993 8.1663 17.7363 8.3033C17.8733 8.44029 17.9503 8.6261 17.9503 8.81984C17.9503 9.01359 17.8733 9.19939 17.7363 9.33639C17.5993 9.47339 17.4135 9.55035 17.2198 9.55035H10.1582V16.6119C10.1582 16.8057 10.0812 16.9915 9.94424 17.1285C9.80724 17.2655 9.62143 17.3424 9.42769 17.3424C9.23395 17.3424 9.04814 17.2655 8.91114 17.1285C8.77415 16.9915 8.69718 16.8057 8.69718 16.6119V9.55035H1.6356C1.44186 9.55035 1.25605 9.47339 1.11905 9.33639C0.982054 9.19939 0.90509 9.01359 0.90509 8.81984C0.90509 8.6261 0.982054 8.44029 1.11905 8.3033C1.25605 8.1663 1.44186 8.08933 1.6356 8.08933H8.69718V1.02775C8.69718 0.834007 8.77415 0.648199 8.91114 0.511202C9.04814 0.374205 9.23395 0.297241 9.42769 0.297241Z" fill="#E5E5E5"/>
</svg>
