<svg width="27" height="24" viewBox="0 0 27 24" fill="none" xmlns="http://www.w3.org/2000/svg">
<path d="M17.9272 21.0464C18.5942 21.0464 19.1348 21.5871 19.1348 22.2541C19.1348 22.921 18.5942 23.4617 17.9272 23.4617H2.18729C1.52034 23.4617 0.979662 22.921 0.979662 22.2541C0.979662 21.5871 1.52034 21.0464 2.18729 21.0464H17.9272ZM25.2153 10.843C25.8823 10.843 26.423 11.3837 26.423 12.0507C26.423 12.7176 25.8823 13.2583 25.2153 13.2583H1.8933C1.22634 13.2583 0.685669 12.7176 0.685669 12.0507C0.685669 11.3837 1.22634 10.843 1.8933 10.843H25.2153ZM25.2224 0.639648C25.8893 0.639648 26.43 1.18032 26.43 1.84728C26.43 2.51423 25.8893 3.0549 25.2224 3.0549H9.18144C8.51448 3.0549 7.97381 2.51423 7.97381 1.84728C7.97381 1.18032 8.51448 0.639648 9.18144 0.639648H25.2224Z" fill="black" stroke="white" stroke-width="0.5"/>
</svg>
