<svg width="12" height="12" viewBox="0 0 12 12" fill="none" xmlns="http://www.w3.org/2000/svg">
<path d="M11.5835 9.41154L11.5606 0.591899L2.74101 0.569014C2.64912 0.556574 2.55563 0.56402 2.46687 0.590851C2.37811 0.617682 2.29616 0.66327 2.22655 0.724529C2.15694 0.785788 2.1013 0.861288 2.06341 0.945918C2.02552 1.03055 2.00625 1.12233 2.00691 1.21505C2.00757 1.30778 2.02815 1.39928 2.06725 1.48336C2.10635 1.56743 2.16306 1.64213 2.23353 1.70239C2.30401 1.76265 2.38661 1.80706 2.47574 1.83262C2.56488 1.85818 2.65846 1.86429 2.75016 1.85054L9.35917 1.878L0.603606 10.6336C0.482219 10.755 0.414026 10.9196 0.414026 11.0913C0.414026 11.2629 0.48222 11.4276 0.603606 11.5489C0.724993 11.6703 0.889628 11.7385 1.06129 11.7385C1.23296 11.7385 1.39759 11.6703 1.51898 11.5489L10.2745 2.79338L10.302 9.40239C10.3026 9.57415 10.3714 9.73863 10.4933 9.85966C10.6152 9.98068 10.7802 10.0483 10.9519 10.0477C11.1237 10.0471 11.2882 9.97831 11.4092 9.85642C11.5302 9.73454 11.5979 9.56957 11.5973 9.39781L11.5835 9.41154Z" fill="#4C4C4C"/>
</svg>
