<svg width="23" height="24" viewBox="0 0 23 24" fill="none" xmlns="http://www.w3.org/2000/svg">
<path fill-rule="evenodd" clip-rule="evenodd" d="M11.4595 0.389648C9.22989 0.389648 7.09159 1.27536 5.51501 2.85194C3.93844 4.42852 3.05272 6.56681 3.05272 8.79643V9.56009C3.05266 10.316 2.82884 11.0551 2.40947 11.684L1.16527 13.553C-0.281786 15.7225 0.822486 18.6709 3.33801 19.3564C4.157 19.5799 4.98357 19.7686 5.81557 19.9238L5.81774 19.9292C6.65083 22.1551 8.87998 23.7117 11.4595 23.7117C14.039 23.7117 16.2682 22.1551 17.1024 19.9292L17.1045 19.9238C17.9378 19.7687 18.7644 19.5795 19.5821 19.3564C22.0976 18.6709 23.2019 15.7225 21.7548 13.553L20.5095 11.684C20.0902 11.0551 19.8664 10.316 19.8663 9.56009V8.79643C19.8663 6.56681 18.9806 4.42852 17.404 2.85194C15.8274 1.27536 13.6891 0.389648 11.4595 0.389648ZM15.1216 20.2264C12.6885 20.5171 10.2294 20.5171 7.79632 20.2264C8.56758 21.3339 9.90941 22.0846 11.4595 22.0846C13.0096 22.0846 14.3504 21.3339 15.1216 20.2264ZM4.67984 8.79643C4.67984 6.99835 5.39413 5.27392 6.66556 4.00249C7.937 2.73105 9.66143 2.01677 11.4595 2.01677C13.2576 2.01677 14.982 2.73105 16.2535 4.00249C17.5249 5.27392 18.2392 6.99835 18.2392 8.79643V9.56009C18.2392 10.6372 18.5581 11.6905 19.1558 12.5865L20.4011 14.4556C20.594 14.7445 20.7155 15.0753 20.7555 15.4205C20.7954 15.7656 20.7527 16.1154 20.6308 16.4408C20.509 16.7662 20.3115 17.058 20.0546 17.292C19.7978 17.5261 19.4889 17.6957 19.1536 17.7868C14.1158 19.1607 8.80209 19.1607 3.76432 17.7868C3.42931 17.6954 3.12082 17.5257 2.86424 17.2917C2.60766 17.0577 2.41033 16.7661 2.28852 16.4409C2.16671 16.1157 2.12389 15.7662 2.16358 15.4213C2.20328 15.0763 2.32437 14.7457 2.51686 14.4566L3.76432 12.5865C4.36151 11.6902 4.68007 10.6372 4.67984 9.56009V8.79643Z" fill="black"/>
</svg>
