<svg width="12" height="15" viewBox="0 0 12 15" fill="none" xmlns="http://www.w3.org/2000/svg">
<path d="M11.3592 13.7972C11.3592 11.3482 8.62869 9.35737 6.17962 9.35737C3.73055 9.35737 1 11.3482 1 13.7972M6.17962 7.13812C6.96458 7.13812 7.71738 6.8263 8.27243 6.27125C8.82748 5.7162 9.13931 4.96339 9.13931 4.17844C9.13931 3.39348 8.82748 2.64067 8.27243 2.08562C7.71738 1.53057 6.96458 1.21875 6.17962 1.21875C5.39466 1.21875 4.64185 1.53057 4.08681 2.08562C3.53176 2.64067 3.21993 3.39348 3.21993 4.17844C3.21993 4.96339 3.53176 5.7162 4.08681 6.27125C4.64185 6.8263 5.39466 7.13812 6.17962 7.13812Z" stroke="#367B86" stroke-width="1.25081" stroke-linecap="round" stroke-linejoin="round"/>
</svg>
