<svg width="18" height="22" viewBox="0 0 18 22" fill="none" xmlns="http://www.w3.org/2000/svg">
<path d="M16.8738 20.5378C16.8738 16.8348 12.7451 13.8246 9.04206 13.8246C5.339 13.8246 1.21033 16.8348 1.21033 20.5378M9.04206 10.4691C10.2289 10.4691 11.3672 9.99757 12.2065 9.15832C13.0457 8.31907 13.5172 7.18081 13.5172 5.99393C13.5172 4.80705 13.0457 3.66878 12.2065 2.82953C11.3672 1.99028 10.2289 1.5188 9.04206 1.5188C7.85518 1.5188 6.71692 1.99028 5.87767 2.82953C5.03842 3.66878 4.56693 4.80705 4.56693 5.99393C4.56693 7.18081 5.03842 8.31907 5.87767 9.15832C6.71692 9.99757 7.85518 10.4691 9.04206 10.4691Z" stroke="#3E3E3E" stroke-width="1.5" stroke-linecap="round" stroke-linejoin="round"/>
</svg>
