<svg width="18" height="20" viewBox="0 0 18 20" fill="none" xmlns="http://www.w3.org/2000/svg">
<path d="M1.8542 3.52145H0.985495V1.78403H6.15969H6.36735V1.57637V0.707663H12.4103V1.57637V1.78403H12.6179H17.7921V3.52145H16.9234H16.7157V3.72911V17.7219C16.7157 18.2585 16.5273 18.7128 16.1446 19.0961C15.7621 19.4792 15.308 19.6677 14.7709 19.667H14.7707H4.00695C3.4704 19.667 3.0165 19.4786 2.63395 19.096C2.25144 18.7135 2.06256 18.2592 2.06187 17.7219V3.72911V3.52145H1.8542ZM14.9783 3.72911V3.52145H14.7707H4.00695H3.79928V3.72911V17.7219V17.9296H4.00695H14.7707H14.9783V17.7219V3.72911ZM8.10477 6.08952V15.3615H6.36735V6.08952H8.10477ZM12.4103 6.08952V15.3615H10.6728V6.08952H12.4103Z" fill="#DD5858" stroke="white" stroke-width="0.415325"/>
</svg>
