<svg width="20" height="20" viewBox="0 0 20 20" fill="none" xmlns="http://www.w3.org/2000/svg">
<path d="M3.92638 5.34479H2.85001C2.27907 5.34479 1.73151 5.57159 1.32779 5.97531C0.924072 6.37903 0.697266 6.92659 0.697266 7.49753V17.1849C0.697266 17.7558 0.924072 18.3034 1.32779 18.7071C1.73151 19.1108 2.27907 19.3376 2.85001 19.3376H12.5373C13.1083 19.3376 13.6558 19.1108 14.0596 18.7071C14.4633 18.3034 14.6901 17.7558 14.6901 17.1849V16.1085" stroke="#8689A2" stroke-width="1.32073" stroke-linecap="round" stroke-linejoin="round"/>
<path d="M13.6132 3.19186L16.8423 6.42097M18.3331 4.89791C18.757 4.47398 18.9952 3.89902 18.9952 3.2995C18.9952 2.69998 18.757 2.12501 18.3331 1.70108C17.9092 1.27716 17.3342 1.039 16.7347 1.039C16.1352 1.039 15.5602 1.27716 15.1363 1.70108L6.07861 10.7265V13.9556H9.30773L18.3331 4.89791Z" stroke="#8689A2" stroke-width="1.32073" stroke-linecap="round" stroke-linejoin="round"/>
</svg>
