<svg width="22" height="27" viewBox="0 0 22 27" fill="none" xmlns="http://www.w3.org/2000/svg">
<path d="M11.2631 15.8702C11.9801 15.8702 12.594 15.6152 13.105 15.105C13.616 14.5949 13.8711 13.981 13.8702 13.2631C13.8702 12.5462 13.6151 11.9327 13.105 11.4225C12.5949 10.9124 11.9809 10.6569 11.2631 10.6561C10.5462 10.6561 9.93263 10.9115 9.42251 11.4225C8.91239 11.9335 8.65689 12.5471 8.65602 13.2631C8.65602 13.9801 8.91152 14.5941 9.42251 15.105C9.9335 15.616 10.547 15.8711 11.2631 15.8702ZM6.04894 21.0844H16.4773V20.3348C16.4773 19.8134 16.3361 19.3355 16.0536 18.901C15.7712 18.4664 15.3801 18.1406 14.8804 17.9233C14.3156 17.6843 13.7342 17.4996 13.1363 17.3693C12.5384 17.2389 11.914 17.1738 11.2631 17.1738C10.6113 17.1738 9.98694 17.2389 9.38992 17.3693C8.7929 17.4996 8.21152 17.6843 7.64578 17.9233C7.14609 18.1406 6.75503 18.4664 6.47259 18.901C6.19016 19.3355 6.04894 19.8134 6.04894 20.3348V21.0844ZM19.0844 26.2985H3.44186C2.72491 26.2985 2.11138 26.0435 1.60126 25.5334C1.09114 25.0233 0.835647 24.4093 0.834778 23.6915V2.8348C0.834778 2.11786 1.09027 1.50432 1.60126 0.994205C2.11225 0.484085 2.72578 0.228591 3.44186 0.227722H13.8702L21.6914 8.04897V23.6915C21.6914 24.4084 21.4364 25.0224 20.9263 25.5334C20.4161 26.0444 19.8022 26.2994 19.0844 26.2985ZM19.0844 23.6915V9.15698L12.7622 2.8348H3.44186V23.6915H19.0844Z" fill="#B8C3C4"/>
</svg>
