<svg width="23" height="22" viewBox="0 0 23 22" fill="none" xmlns="http://www.w3.org/2000/svg">
<path d="M9.27773 20.8842L9.27665 20.8831C9.21015 20.816 9.17363 20.7412 9.17363 20.6098V1.39509C9.17363 1.26553 9.20967 1.19139 9.27717 1.12389C9.3451 1.05596 9.41899 1.02035 9.54704 1.02035H13.4437C13.5899 1.02035 13.6633 1.06079 13.7223 1.12064L13.7234 1.12173C13.7899 1.18881 13.8264 1.26362 13.8264 1.39509V20.6098C13.8264 20.7393 13.7904 20.8135 13.7229 20.881C13.655 20.9489 13.5811 20.9845 13.453 20.9845H9.55639C9.41018 20.9845 9.3368 20.9441 9.27773 20.8842ZM1.58412 20.9845C1.45642 20.9845 1.38151 20.949 1.31245 20.8805C1.24524 20.8131 1.20938 20.739 1.20938 20.6098V9.4208C1.20938 9.27349 1.25004 9.19876 1.31026 9.13887C1.37891 9.07133 1.45451 9.03537 1.58412 9.03537H4.97447C5.10403 9.03537 5.17817 9.0714 5.24567 9.13891C5.31318 9.20641 5.34921 9.28055 5.34921 9.41011V20.5991C5.34921 20.7468 5.30832 20.8215 5.24783 20.8815C5.18075 20.948 5.10594 20.9845 4.97447 20.9845H1.58412ZM18.0256 20.9845C17.8941 20.9845 17.8193 20.948 17.7522 20.8815C17.685 20.8149 17.6509 20.7439 17.6509 20.6204V12.0711C17.6509 11.9477 17.685 11.8767 17.7522 11.8101C17.8193 11.7436 17.8941 11.707 18.0256 11.707H21.4159C21.5457 11.707 21.6213 11.7431 21.69 11.8108C21.7568 11.8772 21.7907 11.9481 21.7907 12.0711V20.6204C21.7907 20.7435 21.7567 20.8145 21.6899 20.8809C21.6212 20.9485 21.5456 20.9845 21.4159 20.9845H18.0256Z" stroke="#B8C3C4" stroke-width="1.40923"/>
</svg>
