<svg width="24" height="24" viewBox="0 0 24 24" fill="none" xmlns="http://www.w3.org/2000/svg">
<path d="M8.02222 13.733H3.54537C2.95222 13.7363 2.38451 13.9743 1.96628 14.3949C1.54804 14.8155 1.31328 15.3846 1.31329 15.9777V20.4546C1.31329 21.0466 1.54846 21.6143 1.96705 22.0329C2.38565 22.4515 2.95338 22.6867 3.54537 22.6867H8.02222C8.61528 22.6867 9.18421 22.4519 9.60464 22.0336C10.0251 21.6154 10.2628 21.0476 10.2659 20.4546V15.9777C10.2659 15.3827 10.0295 14.812 9.60871 14.3913C9.18795 13.9705 8.61727 13.7341 8.02222 13.7341M8.02222 1.31329H3.54537C3.25225 1.31329 2.962 1.37103 2.69119 1.4832C2.42038 1.59537 2.17432 1.75979 1.96705 1.96705C1.75979 2.17432 1.59537 2.42038 1.4832 2.69119C1.37103 2.962 1.31329 3.25225 1.31329 3.54537V8.02222C1.31329 8.61528 1.54808 9.18421 1.96635 9.60464C2.38461 10.0251 2.95233 10.2628 3.54537 10.2659H8.02222C8.61727 10.2659 9.18795 10.0295 9.60871 9.60871C10.0295 9.18795 10.2659 8.61727 10.2659 8.02222V3.54537C10.2628 2.95233 10.0251 2.38461 9.60464 1.96635C9.18421 1.54808 8.61528 1.31329 8.02222 1.31329ZM20.4546 1.31329H15.9777C15.3847 1.31329 14.8158 1.54808 14.3953 1.96635C13.9749 2.38461 13.7372 2.95233 13.7341 3.54537V8.02222C13.7344 8.61718 13.9709 9.18768 14.3916 9.60837C14.8123 10.0291 15.3828 10.2655 15.9777 10.2659H20.4546C21.0476 10.2628 21.6154 10.0251 22.0336 9.60464C22.4519 9.18421 22.6867 8.61528 22.6867 8.02222V3.54537C22.6867 2.95338 22.4515 2.38565 22.0329 1.96705C21.6143 1.54846 21.0466 1.31329 20.4546 1.31329ZM18.2098 13.733C17.0225 13.733 15.8838 14.2046 15.0442 15.0442C14.2046 15.8838 13.733 17.0225 13.733 18.2098C13.733 19.3972 14.2046 20.5359 15.0442 21.3754C15.8838 22.215 17.0225 22.6867 18.2098 22.6867C19.3972 22.6867 20.5359 22.215 21.3754 21.3754C22.215 20.5359 22.6867 19.3972 22.6867 18.2098C22.6867 17.0225 22.215 15.8838 21.3754 15.0442C20.5359 14.2046 19.3972 13.733 18.2098 13.733Z" stroke="#62C8A3" stroke-width="2.11385" stroke-linecap="round" stroke-linejoin="round"/>
</svg>
