<svg width="25" height="24" viewBox="0 0 25 24" fill="none" xmlns="http://www.w3.org/2000/svg">
<path d="M6.47686 1.31573C5.88895 1.31573 5.3068 1.43153 4.76364 1.65652C4.22048 1.8815 3.72696 2.21126 3.31124 2.62698C2.89553 3.04269 2.56576 3.53622 2.34078 4.07937C2.1158 4.62253 2 5.20468 2 5.79259C2 6.3805 2.1158 6.96265 2.34078 7.50581C2.56576 8.04897 2.89553 8.54249 3.31124 8.95821C3.72696 9.37392 4.22048 9.70369 4.76364 9.92867C5.3068 10.1537 5.88895 10.2694 6.47686 10.2694C7.66419 10.2694 8.8029 9.79778 9.64247 8.95821C10.482 8.11863 10.9537 6.97993 10.9537 5.79259C10.9537 4.60526 10.482 3.46655 9.64247 2.62698C8.8029 1.7874 7.66419 1.31573 6.47686 1.31573ZM18.8965 1.31573C18.3086 1.31573 17.7265 1.43153 17.1833 1.65652C16.6401 1.8815 16.1466 2.21126 15.7309 2.62698C15.3152 3.04269 14.9854 3.53622 14.7604 4.07937C14.5355 4.62253 14.4197 5.20468 14.4197 5.79259C14.4197 6.3805 14.5355 6.96265 14.7604 7.50581C14.9854 8.04897 15.3152 8.54249 15.7309 8.95821C16.1466 9.37392 16.6401 9.70369 17.1833 9.92867C17.7265 10.1537 18.3086 10.2694 18.8965 10.2694C20.0839 10.2694 21.2226 9.79778 22.0621 8.95821C22.9017 8.11863 23.3734 6.97993 23.3734 5.79259C23.3734 4.60526 22.9017 3.46655 22.0621 2.62698C21.2226 1.7874 20.0839 1.31573 18.8965 1.31573ZM6.47686 13.7354C5.88895 13.7354 5.3068 13.8512 4.76364 14.0762C4.22048 14.3012 3.72696 14.6309 3.31124 15.0466C2.89553 15.4624 2.56576 15.9559 2.34078 16.499C2.1158 17.0422 2 17.6243 2 18.2123C2 18.8002 2.1158 19.3823 2.34078 19.9255C2.56576 20.4686 2.89553 20.9622 3.31124 21.3779C3.72696 21.7936 4.22048 22.1234 4.76364 22.3483C5.3068 22.5733 5.88895 22.6891 6.47686 22.6891C7.66419 22.6891 8.8029 22.2174 9.64247 21.3779C10.482 20.5383 10.9537 19.3996 10.9537 18.2123C10.9537 17.0249 10.482 15.8862 9.64247 15.0466C8.8029 14.2071 7.66419 13.7354 6.47686 13.7354ZM18.8965 13.7354C18.3086 13.7354 17.7265 13.8512 17.1833 14.0762C16.6401 14.3012 16.1466 14.6309 15.7309 15.0466C15.3152 15.4624 14.9854 15.9559 14.7604 16.499C14.5355 17.0422 14.4197 17.6243 14.4197 18.2123C14.4197 18.8002 14.5355 19.3823 14.7604 19.9255C14.9854 20.4686 15.3152 20.9622 15.7309 21.3779C16.1466 21.7936 16.6401 22.1234 17.1833 22.3483C17.7265 22.5733 18.3086 22.6891 18.8965 22.6891C20.0839 22.6891 21.2226 22.2174 22.0621 21.3779C22.9017 20.5383 23.3734 19.3996 23.3734 18.2123C23.3734 17.0249 22.9017 15.8862 22.0621 15.0466C21.2226 14.2071 20.0839 13.7354 18.8965 13.7354Z" stroke="#B8C3C4" stroke-width="2.11385" stroke-linecap="round" stroke-linejoin="round"/>
</svg>
