<svg width="20" height="20" viewBox="0 0 20 20" fill="none" xmlns="http://www.w3.org/2000/svg">
<rect x="0.914876" y="1.34517" width="18.1703" height="18.2083" rx="9.08517" stroke="#799A9F" stroke-width="0.791667"/>
<path d="M9.5124 12.1627L9.23373 8.61601V6.08267H10.8804V8.61601L10.5891 12.1627H9.5124ZM10.7284 14.8227C10.5426 15.0085 10.3188 15.1013 10.0571 15.1013C9.79529 15.1013 9.57151 15.0085 9.38573 14.8227C9.19995 14.6369 9.10706 14.4131 9.10706 14.1513C9.10706 13.8896 9.19573 13.6658 9.37306 13.48C9.55884 13.2942 9.78684 13.2013 10.0571 13.2013C10.3188 13.2013 10.5426 13.2942 10.7284 13.48C10.9142 13.6658 11.0071 13.8896 11.0071 14.1513C11.0071 14.4131 10.9142 14.6369 10.7284 14.8227Z" fill="#799A9F"/>
</svg>
