<svg width="11" height="15" viewBox="0 0 11 15" fill="none" xmlns="http://www.w3.org/2000/svg">
<path d="M5.54308 7.40754C5.07144 7.40754 4.61912 7.22018 4.28563 6.88669C3.95213 6.55319 3.76478 6.10088 3.76478 5.62924C3.76478 5.15761 3.95213 4.70529 4.28563 4.3718C4.61912 4.0383 5.07144 3.85094 5.54308 3.85094C6.01471 3.85094 6.46703 4.0383 6.80052 4.3718C7.13402 4.70529 7.32137 5.15761 7.32137 5.62924C7.32137 5.86277 7.27538 6.09401 7.18601 6.30977C7.09664 6.52552 6.96565 6.72156 6.80052 6.88669C6.63539 7.05182 6.43935 7.18281 6.2236 7.27217C6.00785 7.36154 5.77661 7.40754 5.54308 7.40754ZM5.54308 0.650009C4.2225 0.650009 2.95601 1.17461 2.02223 2.10839C1.08844 3.04218 0.563843 4.30867 0.563843 5.62924C0.563843 9.36367 5.54308 14.8764 5.54308 14.8764C5.54308 14.8764 10.5223 9.36367 10.5223 5.62924C10.5223 4.30867 9.99771 3.04218 9.06392 2.10839C8.13014 1.17461 6.86365 0.650009 5.54308 0.650009Z" fill="#367B86"/>
</svg>
