<svg width="10" height="16" viewBox="0 0 10 16" fill="none" xmlns="http://www.w3.org/2000/svg">
<path d="M8.18949 0.650009H1.77574C1.01984 0.650009 0.401367 1.26848 0.401367 2.02438V13.9356C0.401367 14.6915 1.01984 15.31 1.77574 15.31H8.18949C8.9454 15.31 9.56387 14.6915 9.56387 13.9356V2.02438C9.56387 1.26848 8.9454 0.650009 8.18949 0.650009ZM3.15012 1.3372H6.81512V1.79532H3.15012V1.3372ZM4.98262 14.3938C4.73961 14.3938 4.50656 14.2972 4.33473 14.1254C4.1629 13.9536 4.06637 13.7205 4.06637 13.4775C4.06637 13.2345 4.1629 13.0015 4.33473 12.8296C4.50656 12.6578 4.73961 12.5613 4.98262 12.5613C5.22562 12.5613 5.45867 12.6578 5.6305 12.8296C5.80233 13.0015 5.89887 13.2345 5.89887 13.4775C5.89887 13.7205 5.80233 13.9536 5.6305 14.1254C5.45867 14.2972 5.22562 14.3938 4.98262 14.3938ZM8.64762 11.645H1.31762V2.48251H8.64762V11.645Z" fill="#367B86"/>
</svg>
