<svg width="13" height="13" viewBox="0 0 13 13" fill="none" xmlns="http://www.w3.org/2000/svg">
<path d="M4.40158 1.41745C4.22413 0.988801 3.7563 0.760647 3.30921 0.88279L1.28117 1.43589C0.880173 1.54651 0.601318 1.91064 0.601318 2.32546C0.601318 8.02701 5.22432 12.65 10.9259 12.65C11.3407 12.65 11.7048 12.3712 11.8154 11.9702L12.3685 9.94212C12.4907 9.49503 12.2625 9.0272 11.8339 8.84974L9.62147 7.92791C9.24582 7.7712 8.81025 7.87951 8.55444 8.19524L7.62339 9.3314C6.00096 8.56398 4.68735 7.25036 3.91992 5.62793L5.05608 4.69918C5.37181 4.44107 5.48013 4.00781 5.32341 3.63216L4.40158 1.41976V1.41745Z" fill="#367B86"/>
</svg>
