<svg width="21" height="21" viewBox="0 0 21 21" fill="none" xmlns="http://www.w3.org/2000/svg">
<mask id="mask0_1120_4488" style="mask-type:luminance" maskUnits="userSpaceOnUse" x="0" y="0" width="21" height="21">
<path d="M10.3691 19.7383C11.5997 19.7399 12.8185 19.4982 13.9555 19.0273C15.0924 18.5563 16.125 17.8654 16.994 16.994C17.8654 16.125 18.5563 15.0924 19.0273 13.9555C19.4982 12.8185 19.7399 11.5997 19.7383 10.3691C19.7398 9.13853 19.4982 7.91975 19.0273 6.78283C18.5563 5.64591 17.8653 4.61326 16.994 3.74422C16.125 2.87291 15.0924 2.18192 13.9555 1.71098C12.8185 1.24003 11.5997 0.998413 10.3691 1.00001C9.13853 0.998439 7.91975 1.24007 6.78283 1.71101C5.64591 2.18196 4.61326 2.87293 3.74422 3.74422C2.87293 4.61326 2.18196 5.64591 1.71101 6.78283C1.24007 7.91975 0.998439 9.13853 1.00001 10.3691C0.998413 11.5997 1.24003 12.8185 1.71098 13.9555C2.18192 15.0924 2.87291 16.125 3.74422 16.994C4.61326 17.8653 5.64591 18.5563 6.78283 19.0273C7.91975 19.4982 9.13853 19.7398 10.3691 19.7383Z" fill="white" stroke="white" stroke-width="1.4" stroke-linejoin="round"/>
<path d="M6.62134 10.3691L9.43208 13.1798L15.0536 7.55835" stroke="black" stroke-width="1.4" stroke-linecap="round" stroke-linejoin="round"/>
</mask>
<g mask="url(#mask0_1120_4488)">
<path d="M-0.874023 -0.873779H21.6119V21.6121H-0.874023V-0.873779Z" fill="#5BB73A"/>
</g>
</svg>
