<svg width="32" height="32" viewBox="0 0 32 32" fill="none" xmlns="http://www.w3.org/2000/svg">
<path d="M21.3888 20.1632L21.245 20.3486L21.4208 20.5038C21.4361 20.5173 21.4511 20.5313 21.4657 20.5456C21.4659 20.5458 21.4661 20.5461 21.4663 20.5463L26.7017 25.7804C26.7017 25.7804 26.7017 25.7804 26.7017 25.7804C26.7932 25.8719 26.8657 25.9805 26.9152 26.0999C26.9647 26.2194 26.9902 26.3475 26.9902 26.4768C26.9902 26.6062 26.9647 26.7342 26.9152 26.8537C26.8657 26.9732 26.7931 27.0818 26.7017 27.1732C26.6102 27.2647 26.5017 27.3372 26.3822 27.3867C26.2627 27.4362 26.1346 27.4617 26.0053 27.4617C25.876 27.4617 25.7479 27.4362 25.6284 27.3867C25.5089 27.3372 25.4004 27.2647 25.3089 27.1733C25.3089 27.1733 25.3089 27.1732 25.3089 27.1732L20.0755 21.9386L20.0244 21.8851L19.8684 21.7219L19.6902 21.8605C17.7567 23.3642 15.3227 24.0741 12.884 23.8455C10.4453 23.6168 8.1856 22.4669 6.56532 20.6301C4.94503 18.7932 4.08613 16.4077 4.16364 13.9595C4.24114 11.5114 5.24923 9.18495 6.98246 7.45426L6.98247 7.45425C8.7142 5.72476 11.0398 4.71996 13.486 4.64426C15.9323 4.56856 18.3156 5.42765 20.1509 7.04676C21.9863 8.66587 23.1358 10.9234 23.3658 13.36C23.5958 15.7966 22.8888 18.2293 21.3888 20.1632ZM20.8851 11.3297C20.4927 10.3985 19.9198 9.55421 19.1995 8.84551C17.7599 7.42922 15.8191 6.63913 13.7996 6.64736C11.7802 6.65558 9.84583 7.46144 8.41786 8.88941C6.9899 10.3174 6.18404 12.2518 6.17581 14.2712C6.16759 16.2906 6.95767 18.2315 8.37396 19.671C9.08267 20.3914 9.92698 20.9643 10.8582 21.3567C11.7894 21.7491 12.7891 21.9532 13.7996 21.9574C14.8102 21.9615 15.8115 21.7655 16.7459 21.3807C17.6803 20.9959 18.5292 20.4298 19.2438 19.7153C19.9583 19.0008 20.5243 18.1518 20.9091 17.2174C21.2939 16.283 21.4899 15.2817 21.4858 14.2712C21.4817 13.2607 21.2775 12.261 20.8851 11.3297Z" fill="black" stroke="white" stroke-width="0.5"/>
</svg>
