<svg width="20" height="20" viewBox="0 0 20 20" fill="none" xmlns="http://www.w3.org/2000/svg">
<path d="M15.0835 13.7046L14.9667 13.8552L15.1095 13.9813C15.122 13.9923 15.1342 14.0037 15.146 14.0153C15.1462 14.0155 15.1463 14.0156 15.1465 14.0158L19.3995 18.2679C19.3996 18.2679 19.3996 18.2679 19.3996 18.2679C19.4738 18.3422 19.5328 18.4303 19.573 18.5274L19.7606 18.4497L19.573 18.5274C19.6132 18.6245 19.6339 18.7285 19.6339 18.8336C19.6339 18.9387 19.6132 19.0427 19.573 19.1398L19.7606 19.2175L19.573 19.1398C19.5328 19.2368 19.4738 19.325 19.3995 19.3993C19.3253 19.4736 19.2371 19.5326 19.14 19.5728L19.2177 19.7604L19.14 19.5728C19.0429 19.613 18.9389 19.6337 18.8338 19.6337C18.7287 19.6337 18.6247 19.613 18.5276 19.5728L18.4499 19.7604L18.5276 19.5728C18.4306 19.5326 18.3424 19.4736 18.2681 19.3993C18.2681 19.3993 18.2681 19.3993 18.2681 19.3993L14.0167 15.1469L13.9751 15.1034L13.8484 14.9708L13.7036 15.0834C12.1329 16.305 10.1556 16.8817 8.17446 16.6959C6.19336 16.5102 4.35764 15.5761 3.04137 14.0839C1.7251 12.5917 1.02735 10.6537 1.09031 8.66491C1.15328 6.67612 1.97221 4.78618 3.38024 3.38023L3.38025 3.38021C4.78705 1.97523 6.67627 1.15896 8.66355 1.09746C10.6508 1.03597 12.5869 1.73387 14.0779 3.04918C15.5689 4.3645 16.5028 6.19842 16.6896 8.17786C16.8764 10.1573 16.3021 12.1336 15.0835 13.7046ZM14.6744 6.52855C14.3556 5.77206 13.8902 5.08616 13.305 4.51043C12.1355 3.35988 10.5588 2.71804 8.91831 2.72472C7.27778 2.7314 5.70635 3.38606 4.54632 4.54609C3.38628 5.70613 2.73162 7.27756 2.72494 8.91809C2.71826 10.5586 3.3601 12.1353 4.51065 13.3048C5.08638 13.89 5.77228 14.3554 6.52878 14.6741C7.28527 14.9929 8.0974 15.1588 8.91831 15.1621C9.73922 15.1654 10.5527 15.0062 11.3117 14.6936C12.0708 14.381 12.7605 13.9212 13.3409 13.3407C13.9214 12.7602 14.3812 12.0706 14.6938 11.3115C15.0064 10.5525 15.1657 9.739 15.1623 8.91809C15.159 8.09718 14.9931 7.28505 14.6744 6.52855Z" fill="#757575" stroke="white" stroke-width="0.406185"/>
</svg>
