<svg width="15" height="15" viewBox="0 0 15 15" fill="none" xmlns="http://www.w3.org/2000/svg">
<path d="M12.8162 2.44125C12.1442 1.76277 11.3439 1.22488 10.4619 0.85898C9.57982 0.493076 8.63375 0.306475 7.67883 0.310064C3.67759 0.310064 0.416675 3.57006 0.41301 7.57222C0.41301 8.85405 0.748355 10.1011 1.38148 11.2051L0.35437 14.97L4.20626 13.9603C5.27139 14.5414 6.4655 14.8454 7.67883 14.8445H7.6825C11.6847 14.8445 14.9447 11.5845 14.9483 7.57863C14.9491 6.62396 14.7611 5.67856 14.395 4.79686C14.0289 3.91517 13.493 3.11459 12.8162 2.44125ZM7.67883 13.6149C6.59691 13.614 5.53502 13.3229 4.60391 12.7719L4.38401 12.64L2.0989 13.2392L2.70912 11.01L2.56618 10.78C1.96129 9.81823 1.64137 8.70472 1.64353 7.56855C1.64353 4.24625 4.35286 1.536 7.6825 1.536C8.47573 1.53458 9.26139 1.69018 9.9942 1.99384C10.727 2.2975 11.3925 2.74321 11.9522 3.30527C12.5138 3.86523 12.959 4.53079 13.2621 5.26358C13.5653 5.99638 13.7205 6.78193 13.7187 7.57497C13.7151 10.9092 11.0057 13.6149 7.67883 13.6149ZM10.9911 9.0941C10.8106 9.00339 9.91905 8.56451 9.75138 8.50221C9.58462 8.44265 9.46276 8.4115 9.34365 8.59292C9.22179 8.77342 8.87361 9.18481 8.76916 9.30301C8.66471 9.42487 8.55659 9.43861 8.37518 9.34882C8.19468 9.25719 7.6092 9.06662 6.91652 8.44632C6.37593 7.96529 6.01401 7.36973 5.9059 7.18923C5.80145 7.00781 5.89582 6.91069 5.98653 6.81998C6.06624 6.73935 6.16703 6.60741 6.25774 6.50296C6.34936 6.39851 6.3796 6.32155 6.43915 6.2006C6.49871 6.07782 6.4703 5.97337 6.42541 5.88266C6.3796 5.79196 6.01768 4.89678 5.86467 4.53578C5.71807 4.17937 5.56872 4.22884 5.45694 4.22426C5.35249 4.21785 5.23063 4.21785 5.10876 4.21785C5.01675 4.22019 4.92621 4.2415 4.84281 4.28044C4.75941 4.31938 4.68494 4.37512 4.62407 4.44416C4.45731 4.62558 3.99095 5.06446 3.99095 5.95963C3.99095 6.8548 4.64148 7.71515 4.7331 7.83701C4.8229 7.95888 6.01035 9.79045 7.83276 10.5784C8.26339 10.7662 8.60241 10.8771 8.8672 10.9614C9.30242 11.1007 9.69549 11.0796 10.0088 11.0347C10.357 10.9816 11.0818 10.5949 11.2348 10.1707C11.385 9.74555 11.385 9.38272 11.3392 9.30667C11.2943 9.22971 11.1725 9.18481 10.9911 9.0941Z" fill="#367B86"/>
</svg>
